<?xml version="1.0" encoding="UTF-8"?>
<svg id="Ebene_1" xmlns="http://www.w3.org/2000/svg" version="1.1" viewBox="0 0 992.1 992.1">
  <!-- Generator: Adobe Illustrator 29.4.0, SVG Export Plug-In . SVG Version: 2.1.0 Build 152)  -->
  <defs>
    <style>
      .st0 {
        fill: #1e1f1d;
      }
    </style>
  </defs>
  <g>
    <path class="st0" d="M658.9,251.5l-442.3-46.5,319.3,182.7-286.4,420.7,292.9-143.2v187.6h70.8v-25h-45.8v-174.8l260.1-127.2-255.8-146.4,87.1-128ZM332,242.3l282.7,29.7-64.7,95-218-124.7ZM774.2,524.1l-451,220.5,234.4-344.4,216.6,123.9Z"/>
    <path class="st0" d="M569.3,300.2c0-13.3-10.8-24.1-24.1-24.1s-24.1,10.8-24.1,24.1,10.8,24.1,24.1,24.1,24.1-10.8,24.1-24.1ZM545.1,307.1c-3.8,0-6.9-3.1-6.9-6.9s3.1-6.9,6.9-6.9,6.9,3.1,6.9,6.9-3.1,6.9-6.9,6.9Z"/>
  </g>
  <path class="st0" d="M496.1,947.9c-61,0-120.2-11.9-175.9-35.5-53.8-22.8-102.1-55.3-143.6-96.8-41.5-41.5-74.1-89.8-96.8-143.6-23.6-55.7-35.5-114.9-35.5-175.9s11.9-120.2,35.5-175.9c22.8-53.8,55.3-102.1,96.8-143.6,41.5-41.5,89.8-74.1,143.6-96.8,55.7-23.6,114.9-35.5,175.9-35.5s120.2,11.9,175.9,35.5c53.8,22.8,102.1,55.3,143.6,96.8s74.1,89.8,96.8,143.6c23.6,55.7,35.5,114.9,35.5,175.9s-11.9,120.2-35.5,175.9c-22.8,53.8-55.3,102.1-96.8,143.6s-89.8,74.1-143.6,96.8c-55.7,23.6-114.9,35.5-175.9,35.5ZM496.1,69.2c-57.6,0-113.5,11.3-166.2,33.5-50.8,21.5-96.5,52.3-135.7,91.5s-70,84.9-91.5,135.7c-22.3,52.6-33.5,108.5-33.5,166.2s11.3,113.5,33.5,166.2c21.5,50.8,52.3,96.5,91.5,135.7s84.9,70,135.7,91.5c52.6,22.3,108.5,33.5,166.2,33.5s113.5-11.3,166.2-33.5c50.8-21.5,96.5-52.3,135.7-91.5s70-84.9,91.5-135.7c22.3-52.6,33.5-108.5,33.5-166.2s-11.3-113.5-33.5-166.2c-21.5-50.8-52.3-96.5-91.5-135.7s-84.9-70-135.7-91.5c-52.6-22.3-108.5-33.5-166.2-33.5Z"/>
</svg>